<svg xmlns="http://www.w3.org/2000/svg" width="800" height="620" viewBox="0 0 800 620">
  <linearGradient id="a" x1="367.709" x2="423.158" y1="223.161" y2="404.526" gradientUnits="userSpaceOnUse">
    <stop offset=".482" stop-color="#FFF" stop-opacity=".1"/>
    <stop offset=".535" stop-color="#FAFAFA" stop-opacity=".193"/>
    <stop offset=".599" stop-color="#EBEBEB" stop-opacity=".304"/>
    <stop offset=".669" stop-color="#D3D3D3" stop-opacity=".425"/>
    <stop offset=".742" stop-color="#B1B1B1" stop-opacity=".553"/>
    <stop offset=".819" stop-color="#858585" stop-opacity=".686"/>
    <stop offset=".899" stop-color="#505050" stop-opacity=".824"/>
    <stop offset=".979" stop-color="#121212" stop-opacity=".963"/>
    <stop offset="1"/>
  </linearGradient>
  <path fill="url(#a)" stroke="#fff" stroke-miterlimit="10" d="M401 400.7c-32.1 0-64.6-13.4-64.6-26.6l-.1.2c-13.8 6.3-47.6 12.5-90.1-16.2-44.4-35.6 11.7-86.7 59.5-77.3l-.1-.3c-9.5-30.2 21.5-60.4 65.5-43.4 0-11.3 14.7-22.6 29.3-22.6h-.9c14.6 0 29.3 11.2 29.3 22.6 44-17 74.9 13.3 65.4 43.5l-.1.3c47.7-9.4 103.8 41.6 59.4 77.3-42.4 28.7-76.1 22.5-89.9 16.2l-.1-.2c0 13.2-32.4 26.6-64.4 26.6"/>
  <path fill="rgb(185,132,14)" stroke="#fafafa" stroke-width=".553" stroke-miterlimit="10" d="M350 282.5c2.5 0 4.8.7 7.1 2.2 2.1 1.4 3.5 3.1 4 5.2.4 1.4.3 2.6-.4 3.5-.6.8-1.4 1.3-2.5 1.3-1.2 0-2.1-.5-3-1.5-.3-.3-.7-1.1-1.4-2.4-.7-1.4-1.6-2.1-2.7-2.1-.8 0-1.3.4-1.6 1.2-.3.8-.3 1.8 0 2.9.5 2 1.6 3.7 3.1 5.2 1.3 1.2 2.7 1.8 4.1 1.8.7 0 1.3-.1 1.7-.2.4-.1 1-.4 1.6-.8.2-.1.4-.2.6-.2.5 0 1 .3 1.5.8s.8 1.1 1 1.8c.2.7.1 1.5-.2 2.3-.3.8-.8 1.5-1.5 2.1-1.5 1.3-3.4 2-5.9 2-2.9 0-5.5-1-8.1-3-3.2-2.5-5.3-5.7-6.3-9.5-1-3.7-.6-6.8 1.2-9.2 2-2.3 4.5-3.4 7.7-3.4zm23.8 5l2 7.9c.9 3.5 1.5 5.5 1.7 6.1.2.6.7 1 1.4 1.3.6.3 1 .5 1.2.7s.4.6.5 1c.1.5.1 1-.1 1.5s-.6.8-1.1.9c-.9.4-2.5.5-4.9.5-2.7 0-4.6-.2-5.8-.7-.6-.2-1-.5-1.5-1s-.7-.9-.8-1.4c-.1-.4-.1-.7 0-.9s.4-.5.9-.8c.5-.3.6-1 .4-2.3-.3-2.1-1-5.2-2-9.1-1-4-1.8-6.6-2.3-7.7-.5-1.1-1.2-2-2.1-2.6-.7-.4-1.2-.8-1.5-1.1-.3-.4-.5-.8-.7-1.3-.2-.8-.1-1.5.4-2.1.5-.6 1.4-1.2 2.7-1.7.9-.3 2-.7 3.5-1 1.4-.3 2.5-.5 3.2-.5 1.1 0 1.9.8 2.3 2.4.1.5.4 1.7.7 3.6.7 3.1 1.3 5.8 1.9 8.3zm15.2-5c2.5 0 5 .8 7.3 2.3 1.7 1.1 3.1 2.6 4.4 4.4 1.3 1.9 2.3 3.8 2.8 5.9.9 3.6.3 6.6-1.8 9.1-2 2.4-4.7 3.6-8.1 3.6-3.3 0-6.3-1.1-8.9-3.3-2.6-2.2-4.3-5-5.2-8.5-1-3.9-.6-7 1.2-9.5 1.9-2.7 4.7-4 8.3-4zm-.2 5.6c-.6 0-1 .3-1.3.8-.2.5-.2 1.2 0 2.1.3 1 .8 2.3 1.5 4 .8 1.7 1.5 3.2 2.3 4.5.8 1.3 1.7 2 2.6 2 1.2 0 1.6-.9 1.1-2.8-.4-1.4-.9-2.9-1.7-4.7s-1.5-3.2-2.2-4.3c-.6-1-1.4-1.5-2.3-1.6zm24.8-4.2l3.4 13.3c.7 2.9 1.9 4.3 3.5 4.3.4 0 .8-.1 1.1-.4s.5-.6.6-1c.1-.8-.2-2.5-.9-5.3-.7-2.7-1.2-4.5-1.7-5.5-.2-.4-.3-.7-.5-.9-.2-.2-.5-.4-1-.7-.9-.5-1.5-1.1-1.7-1.9-.3-1 .2-1.7 1.5-2.1 2.4-.8 4.8-1.1 7.3-1.1 1.4 0 2.3.9 2.8 2.6 0 .2.1.5.3 1.1.2.8.4 1.7.7 2.9l2.8 10.8c.1.6.7 1.1 1.6 1.5.8.4 1.3 1 1.5 1.7.4 1.5-.8 2.6-3.5 3.4-1.6.5-3.2.7-4.8.7-.7 0-1.1-.1-1.4-.3s-.5-.5-.7-1.1c-.3-1-.7-1.5-1.2-1.5-.2 0-.3 0-.4.1s-.5.4-1 1c-1.1 1.1-2.5 1.7-4.1 1.7-2.7 0-4.8-.9-6.3-2.7-1.3-1.5-2.5-4.1-3.4-7.7-.3-1.3-.6-2.5-.9-3.4-.1-.6-.2-.9-.3-1.1-.4-1.4-.7-2.4-1.1-3.1-.4-.7-.9-1.2-1.6-1.6-.6-.3-1-.6-1.2-.8-.2-.2-.3-.5-.4-.8-.3-1.2.3-2.1 1.7-2.5 2.5-.7 5.2-1.1 7.9-1.1.6.3 1.2.7 1.4 1.5zm39.5-8.5l5.8 22.4c.3 1.3.6 2.1.8 2.5s.5.7 1 1.1c.6.4 1 .8 1.3 1.1.3.3.4.7.6 1.1.3 1.3-.5 2.3-2.6 3-1.9.6-3.8.9-5.8.9-.4 0-.8-.1-.9-.2-.2-.2-.4-.5-.5-1.1-.3-.8-.6-1.3-1.1-1.3-.2 0-.5.2-.9.7-1.1 1.4-2.5 2-4.2 2-2.1 0-4.3-.9-6.5-2.8-1.3-1.1-2.5-2.4-3.5-3.9-1.3-1.9-2.2-3.9-2.8-5.8-.6-2.3-.6-4.5-.1-6.7.5-2 1.5-3.5 2.9-4.6 1.2-.9 2.5-1.3 3.9-1.3 1.6 0 3.2.4 4.7 1.3.2.1.4.2.5.2.4 0 .5-.7.1-2.1-.2-.6-.4-1.1-.7-1.4-.3-.3-.8-.6-1.5-.8-1-.3-1.5-.9-1.8-1.7-.3-1.2.5-2.1 2.3-2.8 3.2-1.2 5.5-1.7 6.7-1.7 1.2-.1 2 .5 2.3 1.9zm-8 12.3c-.9 0-1.5.6-1.7 1.7-.3 1.5-.2 3.5.5 5.9.6 2.2 1.4 3.9 2.3 5 .7.8 1.5 1.2 2.3 1.2.9 0 1.4-.6 1.5-1.9.1-1.2-.2-3.2-.9-6-.7-2.5-1.3-4.2-2-5-.7-.5-1.3-.8-2-.9z"/>
  <path fill="#000" d="M328.2 304.5v-1.9H347v1.9c-1.6 0-2.9.4-4.1 1.1-1.2.7-2.1 1.6-2.8 2.9-.7 1.3-1 2.8-1 4.5l.7 40.3h-2.2l-35.9-42 .5 28.2c0 1.8.2 3.2.4 4.4.2 1.2.7 2.3 1.3 3.1.6.9 1.5 1.6 2.6 2.1s2.6.9 4.4 1v1.9h-18.7v-1.9c2.4-.2 4.2-.8 5.4-2 1.2-1.1 1.9-2.5 2.2-4.2s.4-3.8.3-6.3l-.5-28.8c-1.3-1.5-2.6-2.6-3.9-3.3-1.3-.8-2.6-1.1-3.9-1.1h-.4v-1.9h14.5l31.7 36.9-.5-24.7c0-1.9-.2-3.5-.6-4.8-.4-1.3-1-2.4-2-3.2-.7-.7-1.6-1.2-2.8-1.6-1.2-.5-2.4-.7-3.5-.6zm6.8 40.2l-31.7-36.9c-.7-.8-1.4-1.6-2.3-2.3-.9-.7-2.2-1-3.8-1h-1.6c1.3.5 2.3 1 3.1 1.7.7.7 1.7 1.8 3.1 3.4l36.1 42c0-.7-.1-1.3-.1-2s-.1-1.1-.2-1.4c-.1-.3-.3-.7-.7-1.2-.4-.5-1-1.3-1.9-2.3zm-38.5 5.5h7.4c-1-.8-1.8-1.5-2.2-2.2-.4-.7-.8-1.6-1.1-2.8-.3 1.1-.8 2.1-1.4 2.9s-1.5 1.4-2.7 2.1zm44-45.7h-7.7c1.2.4 2.1.9 2.9 1.7s1.4 1.7 1.9 2.9c.5-2.2 1.5-3.7 2.9-4.6zm10.8 22.6c0-2.1.2-4.1.6-6 .4-1.9 1-3.7 1.8-5.4s1.7-3.3 2.9-4.8 2.5-2.8 3.9-4c1.5-1.2 3.2-2.3 4.9-3.1 1.8-.8 3.7-1.4 5.7-1.7 2.1-.4 4.2-.5 6.6-.5 3.9 0 7.5.7 10.8 2s6 3.2 8.3 5.6c2.3 2.4 4 5.1 5.3 8.2s1.8 6.3 1.8 9.8c0 3.7-.7 7.1-2 10.3s-3.3 5.9-5.7 8.3-5.4 4.2-8.7 5.5-6.9 2-10.8 2c-3.6 0-7-.6-10.1-1.9-3.1-1.3-5.8-3.1-8.1-5.4-2.3-2.3-4-5.1-5.3-8.3-1.3-3.4-1.9-6.8-1.9-10.6zm13.1-21.6c-3.9 2.4-6.8 5.4-8.9 9.2-2 3.7-3 7.9-3 12.6 0 3.9.7 7.4 2 10.6 1.3 3.2 3.2 5.9 5.8 8.2 2.6 2.3 5.7 4 9.5 5.3-4.6-2.3-8.3-5.6-11-9.7-2.7-4.1-4.1-9.1-4.1-15.1 0-3 .4-5.7 1.1-8.1.7-2.4 1.8-4.6 3.2-6.8 1.4-2.1 3.2-4.2 5.4-6.2zm-3.4 17.9c0 4.1.4 7.8 1.3 11.3s2.1 6.4 3.6 8.8c1.6 2.5 3.4 4.4 5.6 5.7s4.5 2 6.9 2c2.1 0 4.1-.5 6-1.4 1.9-.9 3.5-2.3 5-4.1s2.5-4 3.3-6.7 1.2-5.7 1.2-9.3c0-3.8-.5-7.4-1.4-10.7s-2.2-6-3.8-8.3c-1.6-2.3-3.5-4.1-5.7-5.3-2.2-1.3-4.5-1.9-7-1.9-2.2 0-4.2.5-6 1.4-1.9.9-3.5 2.3-4.8 4-1.3 1.7-2.4 3.8-3.1 6.3s-1.1 5.2-1.1 8.2zm21.7-19.4c2.6 1.4 4.9 3.3 6.8 5.8 1.9 2.5 3.3 5.4 4.2 8.9s1.4 7.2 1.4 11.4c0 3.9-.5 7.3-1.6 10.2s-2.6 5.4-4.5 7.6c1.9-1.5 3.5-3.1 4.8-4.9s2.1-3.9 2.7-6.3.9-5 .9-7.9c0-4.2-.6-8.1-1.7-11.6s-2.8-6.4-5.1-8.7c-2.3-2.3-4.9-3.8-7.9-4.5zm28-1.5h44.7l2.5 11.6h-2.5c-1.8-3-3.7-5.2-5.7-6.6s-3.8-2.3-5.6-2.5-4-.4-6.8-.5v40c0 1.5.2 2.7.7 3.5s1.3 1.4 2.4 1.7 2.7.5 4.7.6v1.9h-24.6v-1.9c2 0 3.6-.2 4.7-.5s1.9-.8 2.5-1.7.8-2.2.8-4v-39.6c-2.5 0-4.7.3-6.6.8-1.9.5-3.4 1.1-4.7 2-1.3.8-2.3 1.7-3.1 2.6-.8.9-2.1 2.4-3.7 4.3h-2.1l2.4-11.7zm6.5 2h-5.7l-1.4 6c1.2-1.6 2.2-2.7 3.1-3.5.9-.8 2.3-1.6 4-2.5zm14.7 38.7v-34.6c0-1.4-.2-2.4-.5-3.1-.3-.7-.9-1.1-1.8-1.1v40c0 1.5-.2 2.6-.5 3.5s-1 1.6-2 2.3h.8c1.7 0 2.8-.5 3.3-1.6s.7-2.9.7-5.4zm22-33.1l-1.6-5.6h-6.6c1.8.6 3.3 1.3 4.5 2.2 1.2.8 2.4 2 3.7 3.4zm23.5 17.5v15.5c0 1.7.1 3 .4 4s.7 1.7 1.4 2.1 1.6.7 2.8.9 2.9.2 5 .2c2.6 0 4.9-.4 6.9-1.2s4-1.9 5.8-3.5 3.8-3.6 6-6.1h2.8l-4.4 12.7h-43.3v-1.9c2.1 0 3.7-.2 4.8-.5s1.9-.8 2.3-1.6.7-1.8.7-3.1v-34.8c0-1.6-.2-2.8-.6-3.6-.4-.8-1.1-1.3-2.1-1.5-1-.3-2.7-.5-5-.6v-1.9h41.6l4.3 11.2h-2.5c-1.4-1.7-3-3.3-5-4.7-2-1.4-4.1-2.5-6.6-3.4s-5-1.3-7.7-1.3c-2.1 0-3.7.2-4.8.7s-1.8 1.1-2.1 1.9c-.4.8-.5 1.9-.5 3.2v15.3h7.1c6.2 0 9.3-2.8 9.4-8.5h2.5v18.6h-2.2c-.3-2.9-1.1-4.9-2.4-6.2s-3.3-2-6.1-2h-8.5zm-7.6-17.2v34c0 1.7-.2 3-.6 3.8s-1 1.5-1.8 2c1.9 0 3.2-.5 3.8-1.5s.9-2.6.9-4.8v-34c0-2-.3-3.3-1-4-.7-.6-1.9-1-3.6-1 .9.5 1.5 1.1 1.8 1.9.3.7.5 1.9.5 3.6zm23.6 19.5V323c-.9 1.6-2.6 2.7-5 3.4 1.3.4 2.3.8 3.1 1.3s1.4 1.2 1.9 2.2zm5.7-25.4h-6.4c1.8.6 3.3 1.3 4.7 2.1 1.4.8 2.8 1.8 4.3 3l-2.6-5.1zm1.6 45.7l2.4-6.1c-1.4 1.5-2.6 2.6-3.8 3.4s-2.7 1.7-4.8 2.8h6.2z"/>
</svg>
